<svg xmlns="http://www.w3.org/2000/svg" viewBox="0 0 1200 900" role="img" aria-label="A child fairy in an enchanted glow garden">
  <defs>
    <linearGradient id="bg" x1="0" y1="0" x2="1" y2="1"><stop stop-color="#064e3b"/><stop offset=".5" stop-color="#0f766e"/><stop offset="1" stop-color="#db2777"/></linearGradient>
    <radialGradient id="glow" cx=".5" cy=".42" r=".52"><stop stop-color="#fef3c7"/><stop offset=".36" stop-color="#f9a8d4" stop-opacity=".64"/><stop offset="1" stop-color="#f9a8d4" stop-opacity="0"/></radialGradient>
  </defs>
  <rect width="1200" height="900" fill="url(#bg)"/>
  <rect width="1200" height="900" fill="url(#glow)"/>
  <path d="M0 690 C190 610 380 710 560 640 C750 568 920 636 1200 560 L1200 900 L0 900Z" fill="#052e2b" opacity=".5"/>
  <g fill="#fde68a"><circle cx="214" cy="170" r="7"/><circle cx="338" cy="258" r="5"/><circle cx="856" cy="152" r="7"/><circle cx="1002" cy="250" r="5"/></g>
  <g transform="translate(398 238)">
    <path d="M105 178 C22 138 -10 34 79 14 C152 0 172 90 139 174Z" fill="#fbcfe8" opacity=".72" stroke="#f9a8d4" stroke-width="8"/>
    <path d="M245 178 C328 138 360 34 271 14 C198 0 178 90 211 174Z" fill="#bfdbfe" opacity=".72" stroke="#93c5fd" stroke-width="8"/>
    <path d="M175 156 C96 214 72 326 108 448 L242 448 C278 326 254 214 175 156Z" fill="#ec4899" stroke="#082f49" stroke-width="10"/>
    <circle cx="175" cy="82" r="70" fill="#fed7aa" stroke="#082f49" stroke-width="9"/>
    <path d="M112 54 C140 10 206 8 236 56 C198 36 150 36 112 54Z" fill="#7c2d12"/>
    <circle cx="150" cy="80" r="8" fill="#082f49"/><circle cx="201" cy="80" r="8" fill="#082f49"/>
    <path d="M149 114 Q175 136 203 114" fill="none" stroke="#082f49" stroke-width="8" stroke-linecap="round"/>
    <path d="M108 282 Q175 324 242 282" fill="#fef3c7" stroke="#082f49" stroke-width="8"/>
  </g>
  <g transform="translate(138 642)" stroke="#082f49" stroke-width="7">
    <circle cx="0" cy="0" r="42" fill="#f9a8d4"/><circle cx="130" cy="28" r="35" fill="#fde68a"/><circle cx="878" cy="-26" r="45" fill="#a7f3d0"/><circle cx="988" cy="26" r="33" fill="#f0abfc"/>
  </g>
  <path d="M270 724 C424 610 776 610 930 724" fill="none" stroke="#fde68a" stroke-width="14" stroke-linecap="round" opacity=".76"/>
</svg>
