<svg xmlns="http://www.w3.org/2000/svg" viewBox="0 0 1200 900" role="img" aria-label="A child princess at a warm starlight castle">
  <defs>
    <linearGradient id="bg" x1="0" y1="0" x2="1" y2="1"><stop stop-color="#2e1065"/><stop offset=".52" stop-color="#86198f"/><stop offset="1" stop-color="#fb7185"/></linearGradient>
    <radialGradient id="glow" cx=".5" cy=".35" r=".5"><stop stop-color="#fde68a"/><stop offset=".4" stop-color="#f9a8d4" stop-opacity=".68"/><stop offset="1" stop-color="#f9a8d4" stop-opacity="0"/></radialGradient>
  </defs>
  <rect width="1200" height="900" fill="url(#bg)"/><rect width="1200" height="900" fill="url(#glow)"/>
  <g fill="#312e81" stroke="#f9a8d4" stroke-width="8" opacity=".88">
    <path d="M92 706 V404 L172 342 L252 404 V706Z"/><path d="M906 706 V374 L998 308 L1090 374 V706Z"/>
    <path d="M232 706 V480 H968 V706Z"/><path d="M392 480 V326 L458 274 L524 326 V480Z"/><path d="M676 480 V326 L742 274 L808 326 V480Z"/>
  </g>
  <g fill="#fde68a"><circle cx="166" cy="176" r="6"/><circle cx="312" cy="104" r="5"/><circle cx="854" cy="116" r="7"/><circle cx="1036" cy="202" r="5"/></g>
  <g transform="translate(434 250)">
    <path d="M168 150 C84 210 54 330 100 452 L236 452 C282 330 252 210 168 150Z" fill="#f9a8d4" stroke="#082f49" stroke-width="10"/>
    <circle cx="168" cy="82" r="70" fill="#fed7aa" stroke="#082f49" stroke-width="9"/>
    <path d="M104 52 C135 12 204 10 232 56 C196 38 148 38 104 52Z" fill="#7c2d12"/>
    <path d="M112 12 L142 48 L168 6 L194 48 L224 12 L214 64 H122Z" fill="#fde68a" stroke="#082f49" stroke-width="7" stroke-linejoin="round"/>
    <circle cx="143" cy="80" r="8" fill="#082f49"/><circle cx="194" cy="80" r="8" fill="#082f49"/>
    <path d="M142 114 Q168 136 196 114" fill="none" stroke="#082f49" stroke-width="8" stroke-linecap="round"/>
    <path d="M106 284 Q168 334 232 284" fill="#fef3c7" stroke="#082f49" stroke-width="8"/>
  </g>
  <path d="M286 736 C438 640 766 640 914 736" fill="none" stroke="#fde68a" stroke-width="14" stroke-linecap="round" opacity=".82"/>
  <g fill="#fef3c7" opacity=".88"><path d="M600 150 l14 28 31 5 -23 22 6 31 -28 -15 -28 15 6 -31 -23 -22 31 -5Z"/></g>
</svg>
