<svg xmlns="http://www.w3.org/2000/svg" viewBox="0 0 1200 900" role="img" aria-label="A child wizard in Moonbeam Library with a glowing spellbook">
  <defs>
    <linearGradient id="bg" x1="0" y1="0" x2="1" y2="1"><stop stop-color="#111047"/><stop offset=".5" stop-color="#4c1d95"/><stop offset="1" stop-color="#0ea5e9"/></linearGradient>
    <radialGradient id="book" cx=".5" cy=".67" r=".38"><stop stop-color="#fef3c7"/><stop offset=".4" stop-color="#fbbf24" stop-opacity=".75"/><stop offset="1" stop-color="#fbbf24" stop-opacity="0"/></radialGradient>
  </defs>
  <rect width="1200" height="900" fill="url(#bg)"/>
  <rect width="1200" height="900" fill="url(#book)"/>
  <g fill="#1e1b4b" stroke="#a78bfa" stroke-width="6" opacity=".72">
    <rect x="78" y="186" width="210" height="520" rx="18"/><rect x="912" y="160" width="210" height="546" rx="18"/>
    <path d="M108 260 H258 M108 340 H258 M108 420 H258 M942 250 H1092 M942 330 H1092 M942 410 H1092"/>
  </g>
  <g fill="#fde68a"><circle cx="596" cy="92" r="52"/><circle cx="360" cy="154" r="6"/><circle cx="812" cy="184" r="5"/><circle cx="992" cy="92" r="5"/></g>
  <g transform="translate(433 248)">
    <path d="M168 150 C88 202 60 320 95 444 L242 444 C286 320 258 202 168 150Z" fill="#7c3aed" stroke="#082f49" stroke-width="10"/>
    <path d="M80 224 C24 286 17 376 66 470" fill="none" stroke="#f0abfc" stroke-width="34" stroke-linecap="round"/>
    <path d="M254 224 C323 278 346 356 305 454" fill="none" stroke="#f0abfc" stroke-width="34" stroke-linecap="round"/>
    <circle cx="168" cy="82" r="70" fill="#fed7aa" stroke="#082f49" stroke-width="9"/>
    <path d="M98 54 Q168 -24 238 54 L168 18Z" fill="#312e81" stroke="#082f49" stroke-width="8"/>
    <circle cx="143" cy="80" r="8" fill="#082f49"/><circle cx="194" cy="80" r="8" fill="#082f49"/>
    <path d="M142 114 Q168 136 196 114" fill="none" stroke="#082f49" stroke-width="8" stroke-linecap="round"/>
    <path d="M99 290 Q168 250 238 290 L238 358 Q168 322 99 358Z" fill="#fef3c7" stroke="#082f49" stroke-width="8"/>
  </g>
  <path d="M314 642 C440 560 762 560 898 642" fill="none" stroke="#fde68a" stroke-width="14" stroke-linecap="round" opacity=".8"/>
  <g fill="#fef3c7" opacity=".9"><circle cx="414" cy="604" r="8"/><circle cx="500" cy="570" r="6"/><circle cx="706" cy="574" r="7"/><circle cx="786" cy="610" r="8"/></g>
</svg>
