<svg xmlns="http://www.w3.org/2000/svg" viewBox="0 0 1200 900" role="img" aria-label="Bitcoin Hero checks a clock of blockchain blocks">
  <rect width="1200" height="900" fill="#e0f2fe"/>
  <circle cx="600" cy="430" r="300" fill="#fff7ed" stroke="#082f49" stroke-width="14"/>
  <g stroke="#082f49" stroke-width="8" fill="#f7931a">
    <rect x="365" y="190" width="105" height="85" rx="14"/><rect x="502" y="160" width="105" height="85" rx="14"/><rect x="639" y="160" width="105" height="85" rx="14"/><rect x="776" y="190" width="105" height="85" rx="14"/>
    <rect x="305" y="315" width="105" height="85" rx="14"/><rect x="790" y="315" width="105" height="85" rx="14"/><rect x="305" y="462" width="105" height="85" rx="14"/><rect x="790" y="462" width="105" height="85" rx="14"/>
    <rect x="365" y="587" width="105" height="85" rx="14"/><rect x="502" y="620" width="105" height="85" rx="14"/><rect x="639" y="620" width="105" height="85" rx="14"/><rect x="776" y="587" width="105" height="85" rx="14"/>
  </g>
  <path d="M600 430 L600 250 M600 430 L748 430" stroke="#082f49" stroke-width="18" stroke-linecap="round"/>
  <g transform="translate(500 318)">
    <path d="M100 112 C30 150 15 255 62 355 L138 355 C185 255 170 150 100 112Z" fill="#fb923c" stroke="#082f49" stroke-width="8"/>
    <path d="M58 150 C-10 210 -5 300 48 390 L90 345 C72 260 82 195 116 158Z" fill="#0ea5e9" stroke="#082f49" stroke-width="6"/>
    <circle cx="100" cy="58" r="55" fill="#fed7aa" stroke="#082f49" stroke-width="7"/>
    <circle cx="80" cy="56" r="6" fill="#082f49"/><circle cx="120" cy="56" r="6" fill="#082f49"/>
    <path d="M80 84 Q100 100 122 84" fill="none" stroke="#082f49" stroke-width="6" stroke-linecap="round"/>
    <circle cx="100" cy="200" r="38" fill="#f7931a" stroke="#082f49" stroke-width="6"/><text x="100" y="216" text-anchor="middle" font-family="Arial Black, Arial" font-size="38" fill="white">&#8383;</text>
  </g>
</svg>
