<svg xmlns="http://www.w3.org/2000/svg" viewBox="0 0 1200 900" role="img" aria-label="Bitcoin Hero climbs Twenty One Million Mountain">
  <rect width="1200" height="900" fill="#fef3c7"/>
  <path d="M80 820 L600 105 L1120 820Z" fill="#fdba74" stroke="#082f49" stroke-width="14"/>
  <path d="M245 650 C400 575 560 620 680 530 C800 438 915 500 1030 410" fill="none" stroke="#f7931a" stroke-width="42" stroke-linecap="round"/>
  <g fill="#facc15" stroke="#082f49" stroke-width="7"><circle cx="300" cy="625" r="34"/><circle cx="470" cy="600" r="34"/><circle cx="640" cy="545" r="34"/><circle cx="800" cy="480" r="34"/><circle cx="960" cy="425" r="34"/></g>
  <circle cx="600" cy="105" r="70" fill="#f7931a" stroke="#082f49" stroke-width="10"/><text x="600" y="132" text-anchor="middle" font-family="Arial Black, Arial" font-size="72" fill="white">&#8383;</text>
  <g transform="translate(458 360)">
    <path d="M142 108 C55 155 32 275 85 398 L199 398 C252 275 229 155 142 108Z" fill="#fb923c" stroke="#082f49" stroke-width="9"/>
    <path d="M84 162 C10 225 16 334 75 450 L126 394 C103 295 114 220 158 170Z" fill="#38bdf8" stroke="#082f49" stroke-width="7"/>
    <circle cx="142" cy="58" r="60" fill="#fed7aa" stroke="#082f49" stroke-width="8"/>
    <circle cx="120" cy="57" r="7" fill="#082f49"/><circle cx="164" cy="57" r="7" fill="#082f49"/><path d="M120 88 Q142 106 166 88" fill="none" stroke="#082f49" stroke-width="7" stroke-linecap="round"/>
    <circle cx="142" cy="215" r="43" fill="#f7931a" stroke="#082f49" stroke-width="7"/><text x="142" y="232" text-anchor="middle" font-family="Arial Black, Arial" font-size="42" fill="white">&#8383;</text>
  </g>
</svg>
