<svg xmlns="http://www.w3.org/2000/svg" viewBox="0 0 1200 900" role="img" aria-label="Bitcoin Hero places the final block">
  <rect width="1200" height="900" fill="#f0fdf4"/>
  <g stroke="#082f49" stroke-width="10" fill="#fed7aa"><rect x="200" y="610" width="150" height="120" rx="18"/><rect x="370" y="610" width="150" height="120" rx="18"/><rect x="540" y="610" width="150" height="120" rx="18"/><rect x="710" y="610" width="150" height="120" rx="18"/><rect x="880" y="610" width="150" height="120" rx="18"/></g>
  <rect x="515" y="190" width="170" height="145" rx="20" fill="#f7931a" stroke="#082f49" stroke-width="12"/>
  <text x="600" y="285" text-anchor="middle" font-family="Arial Black, Arial" font-size="82" fill="white">&#8383;</text>
  <g transform="translate(456 332)">
    <path d="M144 112 C56 160 32 285 86 410 L202 410 C256 285 232 160 144 112Z" fill="#fb923c" stroke="#082f49" stroke-width="9"/>
    <path d="M86 160 C10 225 14 340 76 455 L130 405 C105 304 116 225 162 168Z" fill="#38bdf8" stroke="#082f49" stroke-width="7"/>
    <circle cx="144" cy="60" r="62" fill="#fed7aa" stroke="#082f49" stroke-width="8"/><circle cx="122" cy="58" r="7" fill="#082f49"/><circle cx="166" cy="58" r="7" fill="#082f49"/><path d="M122 90 Q144 108 168 90" fill="none" stroke="#082f49" stroke-width="7" stroke-linecap="round"/>
    <circle cx="144" cy="220" r="46" fill="#f7931a" stroke="#082f49" stroke-width="7"/><text x="144" y="239" text-anchor="middle" font-family="Arial Black, Arial" font-size="45" fill="white">&#8383;</text>
  </g>
</svg>
