<svg xmlns="http://www.w3.org/2000/svg" viewBox="0 0 1200 900" role="img" aria-label="Bitcoin Hero protects savings in cold storage cave">
  <rect width="1200" height="900" fill="#dbeafe"/>
  <path d="M80 900 C120 430 310 205 600 205 C890 205 1080 430 1120 900Z" fill="#bae6fd" stroke="#082f49" stroke-width="14"/>
  <rect x="410" y="430" width="380" height="260" rx="38" fill="#f97316" stroke="#082f49" stroke-width="12"/>
  <circle cx="600" cy="560" r="82" fill="#facc15" stroke="#082f49" stroke-width="10"/><text x="600" y="592" text-anchor="middle" font-family="Arial Black, Arial" font-size="86" fill="#082f49">&#8383;</text>
  <g transform="translate(160 370)">
    <path d="M118 100 C45 140 25 242 70 350 L166 350 C211 242 191 140 118 100Z" fill="#fb923c" stroke="#082f49" stroke-width="8"/>
    <path d="M70 140 C8 190 10 286 56 382 L102 340 C84 252 93 190 130 148Z" fill="#0ea5e9" stroke="#082f49" stroke-width="6"/>
    <circle cx="118" cy="54" r="54" fill="#fed7aa" stroke="#082f49" stroke-width="7"/><circle cx="98" cy="52" r="6" fill="#082f49"/><circle cx="138" cy="52" r="6" fill="#082f49"/><path d="M98 80 Q118 98 140 80" fill="none" stroke="#082f49" stroke-width="6" stroke-linecap="round"/>
    <circle cx="118" cy="188" r="36" fill="#f7931a" stroke="#082f49" stroke-width="6"/><text x="118" y="203" text-anchor="middle" font-family="Arial Black, Arial" font-size="35" fill="white">&#8383;</text>
  </g>
  <g fill="#fef3c7" stroke="#082f49" stroke-width="6"><circle cx="905" cy="370" r="34"/><circle cx="975" cy="455" r="24"/><circle cx="870" cy="520" r="28"/></g>
</svg>
